<svg viewBox="0 0 329 223" fill="none" xmlns="http://www.w3.org/2000/svg"><path d="M230.921 21h-1.386v-9.912h3.178c.476 0 .928.051 1.358.154.429.093.802.247 1.12.462.326.215.583.5.77.854.186.345.28.77.28 1.274 0 .728-.224 1.316-.672 1.764-.448.448-1.027.733-1.736.854l2.772 4.55h-1.68l-2.52-4.41h-1.484V21zm0-5.572h1.596c.326 0 .63-.028.91-.084a2.32 2.32 0 00.728-.266c.214-.13.382-.294.504-.49.121-.205.182-.457.182-.756s-.061-.546-.182-.742a1.378 1.378 0 00-.49-.49 1.951 1.951 0 00-.7-.252 4.214 4.214 0 00-.854-.084h-1.694v3.164zm11.837 1.666a2.284 2.284 0 00-.14-.728 1.552 1.552 0 00-.35-.602 1.496 1.496 0 00-.574-.392 1.901 1.901 0 00-.798-.154c-.28 0-.546.051-.798.154a2.056 2.056 0 00-.644.392 2.252 2.252 0 00-.448.602 1.923 1.923 0 00-.196.728h3.948zm1.33.532v.224c0 .075-.005.15-.014.224h-5.264c.009.28.07.546.182.798.121.243.28.457.476.644.196.177.42.317.672.42.261.103.537.154.826.154.448 0 .835-.098 1.162-.294.327-.196.583-.434.77-.714l.924.742a3.333 3.333 0 01-1.26 1.036 3.839 3.839 0 01-1.596.322c-.504 0-.971-.084-1.4-.252a3.292 3.292 0 01-1.106-.7 3.35 3.35 0 01-.728-1.106 3.713 3.713 0 01-.266-1.428c0-.513.084-.985.252-1.414.177-.439.42-.812.728-1.12a3.213 3.213 0 011.092-.714c.42-.177.873-.266 1.358-.266.485 0 .924.08 1.316.238.401.159.737.387 1.008.686.28.299.495.663.644 1.092.149.42.224.896.224 1.428zm5.086-2.184h-1.764V18.9c0 .401.074.69.224.868.149.168.387.252.714.252.121 0 .252-.014.392-.042a1.5 1.5 0 00.378-.126l.042 1.078a2.787 2.787 0 01-.532.126 3 3 0 01-.588.056c-.626 0-1.106-.173-1.442-.518-.327-.345-.49-.863-.49-1.554v-3.598h-1.274v-1.078h1.274V12.46h1.302v1.904h1.764v1.078zM251.863 21h-1.316v-6.636h1.316V21zm.224-9.03a.774.774 0 01-.266.602.863.863 0 01-.616.238.863.863 0 01-.616-.238.822.822 0 01-.252-.602c0-.243.084-.443.252-.602a.837.837 0 01.616-.252c.243 0 .448.084.616.252.177.159.266.36.266.602zm2.069 3.822c0-.177-.005-.406-.014-.686a13.41 13.41 0 00-.042-.742h1.246a13.277 13.277 0 01.056 1.12h.042c.187-.392.457-.705.812-.938.364-.243.77-.364 1.218-.364.205 0 .378.019.518.056l-.056 1.218a2.475 2.475 0 00-.602-.07c-.317 0-.593.06-.826.182a1.689 1.689 0 00-.588.462 2.06 2.06 0 00-.336.686 2.783 2.783 0 00-.112.798V21h-1.316v-5.208zm9.684 1.302a2.284 2.284 0 00-.14-.728 1.552 1.552 0 00-.35-.602 1.496 1.496 0 00-.574-.392 1.901 1.901 0 00-.798-.154c-.28 0-.546.051-.798.154a2.056 2.056 0 00-.644.392 2.252 2.252 0 00-.448.602 1.923 1.923 0 00-.196.728h3.948zm1.33.532v.224c0 .075-.005.15-.014.224h-5.264c.009.28.07.546.182.798.121.243.28.457.476.644.196.177.42.317.672.42.261.103.537.154.826.154.448 0 .835-.098 1.162-.294.327-.196.583-.434.77-.714l.924.742a3.333 3.333 0 01-1.26 1.036 3.839 3.839 0 01-1.596.322c-.504 0-.971-.084-1.4-.252a3.292 3.292 0 01-1.106-.7 3.35 3.35 0 01-.728-1.106 3.713 3.713 0 01-.266-1.428c0-.513.084-.985.252-1.414.177-.439.42-.812.728-1.12a3.213 3.213 0 011.092-.714c.42-.177.873-.266 1.358-.266.485 0 .924.08 1.316.238.401.159.737.387 1.008.686.28.299.495.663.644 1.092.149.42.224.896.224 1.428zm9.468-.924c0-.495-.15-.859-.448-1.092-.299-.243-.696-.364-1.19-.364a2.59 2.59 0 00-1.064.224c-.327.14-.602.322-.826.546l-.7-.84c.326-.308.723-.55 1.19-.728a4.334 4.334 0 011.526-.266c.476 0 .886.07 1.232.21.354.13.644.313.868.546.224.233.392.509.504.826.112.317.168.658.168 1.022v2.898c0 .224.004.462.014.714.018.243.046.443.084.602h-1.19a4.126 4.126 0 01-.112-.952h-.042c-.243.355-.551.63-.924.826-.364.196-.798.294-1.302.294a3.3 3.3 0 01-.826-.112 2.273 2.273 0 01-.77-.336 1.994 1.994 0 01-.588-.63c-.15-.261-.224-.583-.224-.966 0-.504.135-.9.406-1.19.27-.299.625-.523 1.064-.672a5.787 5.787 0 011.484-.308c.55-.047 1.106-.07 1.666-.07v-.182zm-.322 1.134c-.327 0-.668.014-1.022.042a4.795 4.795 0 00-.952.168c-.28.084-.514.21-.7.378-.187.168-.28.392-.28.672 0 .196.037.36.112.49.084.13.191.238.322.322.13.084.275.145.434.182.158.028.322.042.49.042.616 0 1.087-.182 1.414-.546.336-.373.504-.84.504-1.4v-.35h-.322zm6.891-2.394h-1.764V18.9c0 .401.074.69.224.868.149.168.387.252.714.252.121 0 .252-.014.392-.042a1.5 1.5 0 00.378-.126l.042 1.078a2.787 2.787 0 01-.532.126 3 3 0 01-.588.056c-.626 0-1.106-.173-1.442-.518-.327-.345-.49-.863-.49-1.554v-3.598h-1.274v-1.078h1.274V12.46h1.302v1.904h1.764v1.078zm6.959-.364l.014.028c.14-.084.327-.15.56-.196a3.42 3.42 0 01.672-.07c.429 0 .831.08 1.204.238.383.15.714.364.994.644.28.27.499.597.658.98.159.383.238.798.238 1.246 0 .495-.089.947-.266 1.358a2.984 2.984 0 01-.714 1.036c-.308.29-.672.513-1.092.672a3.7 3.7 0 01-1.344.238 3.66 3.66 0 01-1.372-.252 3.256 3.256 0 01-1.092-.672 3.248 3.248 0 01-.714-1.036 3.337 3.337 0 01-.252-1.302c0-.541.089-1.031.266-1.47.177-.439.411-.887.7-1.344l2.59-4.088h1.61l-2.66 3.99zm-1.134 2.926c0 .29.047.565.14.826a2.1 2.1 0 00.42.658c.187.187.406.336.658.448.252.112.532.168.84.168.308 0 .583-.051.826-.154.252-.103.467-.247.644-.434.187-.196.327-.42.42-.672.103-.261.154-.546.154-.854 0-.299-.051-.574-.154-.826a1.903 1.903 0 00-.406-.658 1.691 1.691 0 00-.63-.434 2.206 2.206 0 00-.84-.154c-.308 0-.593.051-.854.154a1.975 1.975 0 00-.658.434 2.1 2.1 0 00-.42.658 2.41 2.41 0 00-.14.84zm10.398-7.168c.588 0 1.092.135 1.512.406.43.27.78.644 1.05 1.12.28.467.486 1.017.616 1.652.131.635.196 1.311.196 2.03 0 .728-.065 1.41-.196 2.044a5.406 5.406 0 01-.616 1.652c-.27.467-.62.835-1.05 1.106-.42.27-.924.406-1.512.406s-1.096-.135-1.526-.406a3.272 3.272 0 01-1.064-1.106 5.696 5.696 0 01-.602-1.652 10.179 10.179 0 01-.196-2.044c0-.719.066-1.395.196-2.03.131-.635.332-1.185.602-1.652.28-.476.635-.85 1.064-1.12.43-.27.938-.406 1.526-.406zm0 1.134c-.41 0-.746.135-1.008.406a2.722 2.722 0 00-.616 1.008 6.18 6.18 0 00-.294 1.316c-.056.476-.084.924-.084 1.344 0 .42.028.868.084 1.344.056.476.154.915.294 1.316.15.401.355.737.616 1.008.262.261.598.392 1.008.392.402 0 .728-.13.98-.392.262-.27.467-.607.616-1.008.15-.401.252-.84.308-1.316.056-.476.084-.924.084-1.344 0-.42-.028-.868-.084-1.344a5.625 5.625 0 00-.308-1.316 2.696 2.696 0 00-.616-1.008c-.252-.27-.578-.406-.98-.406z" fill="#757779"/><path opacity=".2" fill-rule="evenodd" clip-rule="evenodd" d="M3 194.5l16.56-4.058 47.612-49.96 11.903-7.859 19.665-3.93 10.868-8.42 16.043-28.067 9.833-8.982 16.561-2.807 11.385-4.49 28.981-31.436L204.314 40l14.49 1.123 36.744 17.963 36.226 21.331 17.595 9.543L328 93.89 326.965 223H3v-28.5z" fill="url(#paint0_linear)"/><path d="M4.3 202.212h1.199L8.854 210H7.27l-.726-1.782H3.167L2.463 210H.912l3.388-7.788zm1.76 4.818l-1.199-3.168-1.221 3.168h2.42zm11.191 2.563a5.842 5.842 0 01-1.309.44 7.18 7.18 0 01-1.628.165c-.63 0-1.206-.099-1.727-.297a4.064 4.064 0 01-1.342-.847 3.988 3.988 0 01-.88-1.298 4.406 4.406 0 01-.308-1.672c0-.623.107-1.184.32-1.683a3.85 3.85 0 01.89-1.287 4.023 4.023 0 011.342-.814 4.758 4.758 0 011.672-.286c.624 0 1.192.092 1.705.275.52.176.939.411 1.254.704l-.957 1.034c-.198-.22-.476-.407-.836-.561a2.85 2.85 0 00-1.155-.231c-.41 0-.784.073-1.122.22a2.52 2.52 0 00-.847.605 2.813 2.813 0 00-.55.902 3.28 3.28 0 00-.187 1.122c0 .418.063.803.187 1.155.132.345.316.645.55.902.242.257.532.458.87.605.344.139.733.209 1.165.209.594 0 1.111-.092 1.551-.275v-1.98H14.27v-1.144h2.981v4.037zm2.688-7.381h5.16v1.21h-3.774v1.98H24.9v1.166h-3.575v2.2h3.971V210H19.94v-7.788zm12.938 3.201h.352c.198 0 .392-.015.583-.044.198-.037.378-.099.539-.187.161-.088.29-.205.385-.352.103-.154.154-.352.154-.594a1.09 1.09 0 00-.1-.473.997.997 0 00-.274-.352 1.154 1.154 0 00-.396-.22 1.396 1.396 0 00-.462-.077c-.323 0-.59.092-.803.275-.213.183-.36.425-.44.726l-1.243-.319a2.06 2.06 0 01.33-.715c.161-.22.352-.407.572-.561.227-.161.48-.286.759-.374a3.158 3.158 0 011.837.011c.308.088.576.224.803.407.235.176.418.396.55.66.132.264.198.572.198.924 0 .418-.128.792-.385 1.122-.25.323-.587.535-1.012.638v.022a2 2 0 011.155.649c.3.33.45.737.45 1.221a2.202 2.202 0 01-.868 1.804 2.62 2.62 0 01-.87.44 3.2 3.2 0 01-.978.154 3.86 3.86 0 01-.935-.11 2.803 2.803 0 01-.814-.319 2.514 2.514 0 01-.65-.572 2.649 2.649 0 01-.428-.836l1.232-.385c.095.308.271.568.528.781.264.213.605.319 1.023.319.169 0 .337-.022.506-.066.176-.051.33-.128.462-.231.14-.103.25-.235.33-.396.088-.161.132-.359.132-.594 0-.249-.062-.458-.187-.627a1.198 1.198 0 00-.451-.407 2.038 2.038 0 00-.616-.22 3.251 3.251 0 00-.638-.066h-.33v-1.056zm11.487.693c0 .631-.063 1.199-.187 1.705-.117.506-.294.935-.528 1.287a2.396 2.396 0 01-.858.814 2.325 2.325 0 01-1.166.286c-.44 0-.833-.095-1.177-.286a2.488 2.488 0 01-.87-.814c-.234-.352-.414-.781-.538-1.287a7.568 7.568 0 01-.176-1.705c0-.631.059-1.199.176-1.705.124-.506.304-.935.539-1.287.234-.352.524-.623.869-.814a2.387 2.387 0 011.177-.286c.44 0 .828.095 1.166.286.345.191.63.462.858.814.234.352.41.781.528 1.287.124.506.187 1.074.187 1.705zm-1.353 0c0-.271-.019-.579-.055-.924a4.208 4.208 0 00-.198-.979 2.043 2.043 0 00-.418-.77.898.898 0 00-.715-.319.91.91 0 00-.726.319 2.167 2.167 0 00-.43.77 5.145 5.145 0 00-.197.979 8.832 8.832 0 00-.055.924c0 .271.018.579.055.924.037.345.102.667.198.968.102.301.245.557.429.77a.927.927 0 00.726.308.915.915 0 00.715-.308c.183-.213.322-.469.418-.77.102-.301.168-.623.198-.968.036-.345.055-.653.055-.924zM287.327 202.212h1.199l3.355 7.788h-1.584l-.726-1.782h-3.377L285.49 210h-1.551l3.388-7.788zm1.76 4.818l-1.199-3.168-1.221 3.168h2.42zm11.192 2.563a5.854 5.854 0 01-1.309.44c-.47.11-1.012.165-1.628.165a4.82 4.82 0 01-1.727-.297 4.06 4.06 0 01-1.342-.847 3.977 3.977 0 01-.88-1.298 4.393 4.393 0 01-.308-1.672c0-.623.106-1.184.319-1.683a3.85 3.85 0 01.891-1.287 4.012 4.012 0 011.342-.814 4.754 4.754 0 011.672-.286c.623 0 1.191.092 1.705.275.52.176.938.411 1.254.704l-.957 1.034c-.198-.22-.477-.407-.836-.561a2.85 2.85 0 00-1.155-.231c-.411 0-.785.073-1.122.22-.33.147-.613.348-.847.605a2.806 2.806 0 00-.55.902 3.27 3.27 0 00-.187 1.122c0 .418.062.803.187 1.155.132.345.315.645.55.902.242.257.531.458.869.605a3.09 3.09 0 001.166.209c.594 0 1.111-.092 1.551-.275v-1.98h-1.639v-1.144h2.981v4.037zm2.687-7.381h5.159v1.21h-3.773v1.98h3.575v1.166h-3.575v2.2h3.971V210h-5.357v-7.788zm13.961-.198c.338 0 .657.048.957.143.301.095.561.235.781.418.228.183.404.407.528.671.132.257.198.55.198.88 0 .455-.113.832-.341 1.133-.227.301-.517.51-.869.627v.022c.206.051.396.136.572.253.176.11.33.249.462.418.132.161.235.345.308.55.081.205.121.429.121.671 0 .389-.073.733-.22 1.034a2.143 2.143 0 01-.583.748 2.43 2.43 0 01-.858.462c-.33.103-.682.154-1.056.154s-.726-.051-1.056-.154a2.553 2.553 0 01-.869-.462 2.348 2.348 0 01-.583-.748 2.438 2.438 0 01-.209-1.034 1.956 1.956 0 01.44-1.254 1.89 1.89 0 01.473-.396c.176-.11.36-.191.55-.242v-.022a1.932 1.932 0 01-.869-.605c-.227-.279-.341-.645-.341-1.1 0-.33.063-.627.187-.891.132-.271.308-.499.528-.682.228-.191.488-.337.781-.44.301-.103.624-.154.968-.154zm0 1.089c-.33 0-.601.099-.814.297-.205.198-.308.466-.308.803 0 .315.099.583.297.803.206.22.481.33.825.33.154 0 .301-.029.44-.088a1.11 1.11 0 00.605-.605 1.115 1.115 0 00-.011-.891.935.935 0 00-.253-.352 1.058 1.058 0 00-.363-.22 1.149 1.149 0 00-.418-.077zm0 3.355c-.19 0-.37.033-.539.099a1.4 1.4 0 00-.429.275c-.117.11-.212.249-.286.418a1.41 1.41 0 00-.099.539c0 .411.129.73.385.957.257.227.58.341.968.341.382 0 .701-.114.957-.341.257-.227.385-.546.385-.957 0-.191-.036-.367-.11-.528a1.151 1.151 0 00-.286-.429 1.232 1.232 0 00-.429-.275 1.348 1.348 0 00-.517-.099zm10.464-.352c0 .631-.062 1.199-.187 1.705-.117.506-.293.935-.528 1.287a2.391 2.391 0 01-.858.814 2.324 2.324 0 01-1.166.286c-.44 0-.832-.095-1.177-.286a2.488 2.488 0 01-.869-.814c-.235-.352-.414-.781-.539-1.287a7.585 7.585 0 01-.176-1.705c0-.631.059-1.199.176-1.705.125-.506.304-.935.539-1.287.235-.352.524-.623.869-.814a2.388 2.388 0 011.177-.286c.44 0 .829.095 1.166.286.345.191.631.462.858.814.235.352.411.781.528 1.287.125.506.187 1.074.187 1.705zm-1.353 0a8.75 8.75 0 00-.055-.924 4.178 4.178 0 00-.198-.979 2.043 2.043 0 00-.418-.77.898.898 0 00-.715-.319.91.91 0 00-.726.319 2.176 2.176 0 00-.429.77 5.191 5.191 0 00-.198.979 8.75 8.75 0 00-.055.924c0 .271.018.579.055.924.037.345.103.667.198.968.103.301.246.557.429.77a.926.926 0 00.726.308.915.915 0 00.715-.308c.183-.213.323-.469.418-.77.103-.301.169-.623.198-.968a8.75 8.75 0 00.055-.924z" fill="#757779"/><path d="M3 192c31.319 0 54.72-64.296 86.038-64.296 31.319 0 26.127-48.752 57.445-48.752 31.319 0 30.932-39.952 62.251-39.952C240.052 39 296.682 91.835 328 91.835" stroke="#5AC69A" stroke-width="2" stroke-linecap="round"/><path d="M89.773 83.35c-7.042 0-12.77 5.74-12.77 12.793 0 10.564 11.92 20.707 12.427 21.134a.529.529 0 00.681.004c.508-.419 12.431-10.388 12.431-21.138 0-7.053-5.728-12.793-12.77-12.793zm.002 32.816c-1.96-1.751-11.708-10.917-11.708-20.023 0-6.468 5.252-11.729 11.706-11.729s11.705 5.261 11.705 11.729c0 9.26-9.739 18.296-11.703 20.023z" fill="#33A34D" stroke="#33A34D"/><circle cx="89.251" cy="122.078" r="2.933" fill="#fff" stroke="#5AC69A" stroke-width="1.955"/><path d="M96.91 96.522l-4.407-1.632-1.847-2.382a1.718 1.718 0 00-.591-.475 1.67 1.67 0 00-.732-.17h-4.56a1.672 1.672 0 00-.798.208c-.245.135-.455.33-.61.567l-1.545 2.346a2.993 2.993 0 00-.496 1.637v4.629c0 .156.06.305.167.415.106.11.252.172.403.172h1.22c.13.497.417.936.815 1.249.398.313.885.483 1.385.483s.987-.17 1.385-.483c.398-.313.684-.752.816-1.249h3.58c.131.497.418.936.815 1.249.398.313.885.483 1.385.483s.987-.17 1.385-.483c.398-.313.684-.752.816-1.249h1.22a.562.562 0 00.403-.172.595.595 0 00.167-.415v-4.177a.598.598 0 00-.104-.337.572.572 0 00-.273-.214zm-11.596 5.902c-.225 0-.446-.069-.633-.198a1.168 1.168 0 01-.42-.526 1.206 1.206 0 01.247-1.279 1.13 1.13 0 01.584-.321 1.11 1.11 0 01.659.066c.208.089.386.24.511.433a1.195 1.195 0 01-.142 1.481c-.214.22-.504.344-.806.344zm7.981 0c-.225 0-.446-.069-.633-.198a1.168 1.168 0 01-.42-.526 1.207 1.207 0 01-.065-.678c.044-.228.152-.437.312-.601.16-.164.363-.276.584-.321a1.11 1.11 0 01.659.066c.208.089.386.24.511.433a1.195 1.195 0 01-.142 1.481c-.213.22-.503.344-.806.344zm2.85-1.76h-.65a2.353 2.353 0 00-.815-1.25 2.238 2.238 0 00-1.385-.482c-.5 0-.987.17-1.385.483a2.353 2.353 0 00-.815 1.249h-3.58a2.352 2.352 0 00-.816-1.25 2.239 2.239 0 00-1.385-.482c-.5 0-.987.17-1.385.483a2.353 2.353 0 00-.815 1.249h-.65v-4.043c0-.353.103-.699.296-.991l1.545-2.347a.575.575 0 01.473-.246h4.56a.555.555 0 01.44.21l1.938 2.506a.622.622 0 00.25.188l4.18 1.543v3.18z" fill="#283964"/><path d="M47.77 111.35c-7.042 0-12.77 5.74-12.77 12.793 0 10.564 11.92 20.707 12.427 21.134a.529.529 0 00.681.004c.508-.419 12.431-10.388 12.431-21.138 0-7.053-5.728-12.793-12.77-12.793zm.002 32.816c-1.96-1.751-11.708-10.917-11.708-20.023 0-6.468 5.252-11.729 11.706-11.729s11.705 5.261 11.705 11.729c0 9.26-9.739 18.296-11.703 20.023z" fill="#017AFF" stroke="#017AFF"/><path d="M51 130.881l-4 2.25-4-2.25v-2.377l-1.143-.635v3.68L47 134.442l5.143-2.893v-3.68l-1.143.635v2.377z" fill="#283964"/><path d="M47 120l-8 4.148v.991l8 4.444 6.857-3.809v3.155H55v-4.781L47 120zm5.714 5.101l-1.143.635-4.571 2.54-4.571-2.54-1.143-.635-.792-.44L47 121.287l6.506 3.374-.792.44z" fill="#283964"/><circle cx="47.933" cy="149.933" r="2.933" fill="#fff" stroke="#5AC69A" stroke-width="1.955"/><path d="M126.172 41.592c-7.041 0-12.77 5.74-12.77 12.793 0 10.564 11.92 20.707 12.427 21.134a.53.53 0 00.681.004c.508-.42 12.432-10.388 12.432-21.138 0-7.053-5.729-12.793-12.77-12.793zm.002 32.816c-1.959-1.75-11.708-10.917-11.708-20.023 0-6.468 5.252-11.729 11.706-11.729s11.706 5.261 11.706 11.729c0 9.26-9.739 18.296-11.704 20.023z" fill="#FFC40D" stroke="#FFC40D"/><path d="M110.946 27.212h1.089v3.256h3.938v-3.256h1.1V35h-1.1v-3.564h-3.938V35h-1.089v-7.788zm13.239 5.17c0 .403-.074.774-.22 1.111-.14.337-.338.63-.594.88-.25.242-.547.433-.891.572a3.081 3.081 0 01-1.111.198c-.396 0-.767-.066-1.111-.198a2.727 2.727 0 01-.891-.572 2.8 2.8 0 01-.594-.88 2.87 2.87 0 01-.209-1.111c0-.403.069-.77.209-1.1a2.588 2.588 0 011.485-1.43c.344-.14.715-.209 1.111-.209s.766.07 1.111.209c.344.132.641.319.891.561.256.242.454.532.594.869.146.33.22.697.22 1.1zm-1.078 0c0-.25-.041-.488-.121-.715a1.7 1.7 0 00-.33-.594 1.57 1.57 0 00-.55-.418 1.679 1.679 0 00-.737-.154c-.279 0-.528.051-.748.154a1.585 1.585 0 00-.539.418 1.807 1.807 0 00-.341.594c-.074.227-.11.466-.11.715 0 .25.036.488.11.715.08.227.194.429.341.605.146.176.326.315.539.418.22.103.469.154.748.154.278 0 .524-.051.737-.154a1.57 1.57 0 00.55-.418 1.82 1.82 0 00.33-.605c.08-.227.121-.466.121-.715zm3.524-1.738c.132-.279.341-.513.627-.704a1.803 1.803 0 011.034-.297c.352 0 .667.08.946.242.286.161.509.429.671.803a1.82 1.82 0 01.737-.77 2.02 2.02 0 011.034-.275c.337 0 .627.059.869.176.242.11.443.26.605.451.161.19.278.414.352.671.08.257.121.532.121.825V35h-1.034v-2.893c0-.213-.019-.414-.055-.605a1.548 1.548 0 00-.187-.506 1.016 1.016 0 00-.352-.352 1.078 1.078 0 00-.561-.132c-.235 0-.437.051-.605.154a1.233 1.233 0 00-.418.385c-.103.154-.18.33-.231.528a2.78 2.78 0 00-.066.605V35h-1.034v-3.102a2.69 2.69 0 00-.055-.561 1.096 1.096 0 00-.187-.429.864.864 0 00-.341-.286 1.104 1.104 0 00-.517-.11c-.382 0-.701.158-.957.473-.25.308-.374.722-.374 1.243V35h-1.034v-4.092c0-.14-.004-.319-.011-.539-.008-.22-.019-.414-.033-.583h.979a9.76 9.76 0 01.044.858h.033zm12.558 1.287a1.793 1.793 0 00-.11-.572 1.208 1.208 0 00-.275-.473 1.168 1.168 0 00-.451-.308 1.494 1.494 0 00-.627-.121c-.22 0-.429.04-.627.121-.19.073-.359.176-.506.308a1.79 1.79 0 00-.352.473 1.512 1.512 0 00-.154.572h3.102zm1.045.418v.176a1.3 1.3 0 01-.011.176h-4.136c.008.22.055.429.143.627.096.19.22.36.374.506.154.14.33.25.528.33.206.08.422.121.649.121.352 0 .657-.077.913-.231.257-.154.459-.341.605-.561l.726.583a2.605 2.605 0 01-.99.814 3.016 3.016 0 01-1.254.253c-.396 0-.762-.066-1.1-.198a2.587 2.587 0 01-.869-.55 2.647 2.647 0 01-.572-.869 2.918 2.918 0 01-.209-1.122c0-.403.066-.774.198-1.111.14-.345.33-.638.572-.88.242-.242.528-.429.858-.561.33-.14.686-.209 1.067-.209.382 0 .726.062 1.034.187.316.125.58.304.792.539.22.235.389.52.506.858.118.33.176.704.176 1.122zM86.623 74.79a3.55 3.55 0 01-1.199 1.023c-.491.257-1.082.385-1.771.385a4.489 4.489 0 01-1.65-.297 4.019 4.019 0 01-1.298-.847c-.36-.367-.642-.8-.847-1.298a4.377 4.377 0 01-.308-1.661c0-.609.103-1.162.308-1.661.213-.506.502-.935.869-1.287.374-.36.814-.638 1.32-.836a4.489 4.489 0 011.65-.297c.264 0 .532.026.803.077.271.051.532.128.781.231.25.103.477.231.682.385.205.147.381.319.528.517l-.858.66c-.19-.264-.462-.48-.814-.649a2.432 2.432 0 00-1.122-.264c-.455 0-.865.084-1.232.253-.36.161-.667.385-.924.671-.257.286-.455.62-.594 1.001-.14.374-.209.774-.209 1.199 0 .44.066.85.198 1.232.14.381.334.715.583 1.001.257.279.565.499.924.66a3 3 0 001.221.242c.44 0 .84-.088 1.199-.264a2.31 2.31 0 00.891-.77l.869.594zm4.108-2.167c0-.389-.118-.675-.352-.858-.235-.19-.547-.286-.935-.286-.294 0-.572.059-.836.176-.257.11-.473.253-.65.429l-.55-.66c.257-.242.57-.433.936-.572.374-.14.773-.209 1.199-.209.374 0 .696.055.968.165.278.103.506.246.682.429.176.183.308.4.396.649.088.25.132.517.132.803v2.277c0 .176.003.363.01.561.015.19.037.348.067.473h-.935a3.26 3.26 0 01-.088-.748h-.033c-.19.279-.433.495-.726.649-.286.154-.627.231-1.023.231-.206 0-.422-.03-.65-.088a1.788 1.788 0 01-.604-.264 1.58 1.58 0 01-.462-.495c-.118-.205-.176-.458-.176-.759 0-.396.106-.708.319-.935a1.95 1.95 0 01.836-.528 4.555 4.555 0 011.166-.242c.432-.037.869-.055 1.309-.055v-.143zm-.253.891c-.257 0-.525.011-.803.033-.272.022-.52.066-.748.132-.22.066-.404.165-.55.297a.676.676 0 00-.22.528c0 .154.03.282.088.385.066.103.15.187.253.253.102.066.216.114.34.143.125.022.254.033.386.033.484 0 .854-.143 1.11-.429.265-.293.397-.66.397-1.1v-.275h-.253zm2.97-1.606a16.631 16.631 0 00-.044-1.122h.979a9.847 9.847 0 01.044.88h.033a1.78 1.78 0 01.638-.737c.286-.19.605-.286.957-.286.161 0 .297.015.407.044l-.044.957a1.944 1.944 0 00-.473-.055c-.25 0-.466.048-.65.143a1.323 1.323 0 00-.461.363 1.61 1.61 0 00-.264.539 2.198 2.198 0 00-.088.627V76h-1.034v-4.092zM22.035 103.032h4.07V104h-5.159v-7.788h4.994v.957h-3.905v2.332h3.674v.935h-3.674v2.596zm9.62.143c-.198.315-.469.557-.814.726a2.447 2.447 0 01-1.067.242c-.403 0-.766-.07-1.089-.209a2.515 2.515 0 01-.825-.594 2.659 2.659 0 01-.528-.88 3.086 3.086 0 01-.187-1.078c0-.381.063-.737.187-1.067.125-.337.301-.63.528-.88a2.49 2.49 0 01.836-.583c.323-.14.679-.209 1.067-.209.426 0 .796.092 1.111.275.316.176.565.392.748.649h.022v-3.883h1.034V104h-1v-.825h-.023zm-3.432-1.793c0 .242.037.477.11.704a1.724 1.724 0 00.869 1.034c.213.103.462.154.748.154.264 0 .503-.051.715-.154.22-.103.407-.238.561-.407a1.85 1.85 0 00.352-.605c.088-.227.132-.466.132-.715 0-.249-.044-.488-.132-.715a1.85 1.85 0 00-.352-.605 1.68 1.68 0 00-1.276-.572c-.286 0-.535.051-.748.154a1.596 1.596 0 00-.539.418 1.802 1.802 0 00-.33.605c-.073.227-.11.462-.11.704zm9.93 2.618a9.86 9.86 0 01-.044-.858h-.021c-.132.279-.356.517-.671.715a1.922 1.922 0 01-1.034.286c-.338 0-.63-.055-.88-.165a1.698 1.698 0 01-.605-.451 2.144 2.144 0 01-.352-.682 2.992 2.992 0 01-.11-.825v-3.234h1.034v2.882c0 .213.014.418.044.616.036.191.099.359.187.506a.982.982 0 00.363.352c.154.088.352.132.594.132.418 0 .755-.154 1.012-.462.256-.315.385-.733.385-1.254v-2.772h1.034v4.092a16.648 16.648 0 00.044 1.122h-.98zm6.381-3.894a1.226 1.226 0 00-.495-.418 1.474 1.474 0 00-.704-.176 1.65 1.65 0 00-.726.154 1.628 1.628 0 00-.528.418c-.147.169-.26.367-.34.594-.074.227-.11.466-.11.715 0 .249.036.488.11.715.08.227.194.429.34.605a1.645 1.645 0 001.265.561c.264 0 .502-.051.715-.154.22-.103.4-.242.54-.418l.692.627c-.22.257-.495.458-.825.605-.33.139-.704.209-1.122.209-.403 0-.777-.066-1.122-.198a2.704 2.704 0 01-.88-.55 2.696 2.696 0 01-.594-.869 2.942 2.942 0 01-.209-1.133c0-.411.07-.785.21-1.122a2.554 2.554 0 011.462-1.43 3.08 3.08 0 011.111-.198c.367 0 .73.073 1.09.22.366.147.655.36.868.638l-.748.605zm5.029.517c0-.389-.118-.675-.352-.858-.235-.19-.547-.286-.935-.286-.294 0-.572.059-.836.176-.257.11-.473.253-.65.429l-.55-.66c.257-.242.57-.433.936-.572.374-.14.773-.209 1.199-.209.374 0 .696.055.968.165.278.103.506.246.682.429.176.183.308.4.396.649.088.249.132.517.132.803v2.277c0 .176.003.363.01.561.015.191.037.348.067.473h-.935a3.254 3.254 0 01-.088-.748h-.033c-.19.279-.433.495-.726.649-.286.154-.627.231-1.023.231-.206 0-.422-.029-.65-.088a1.776 1.776 0 01-.604-.264 1.584 1.584 0 01-.462-.495c-.118-.205-.176-.458-.176-.759 0-.396.106-.708.319-.935.212-.235.491-.411.836-.528a4.553 4.553 0 011.166-.242c.432-.037.869-.055 1.309-.055v-.143zm-.253.891c-.257 0-.525.011-.803.033-.272.022-.52.066-.748.132-.22.066-.404.165-.55.297a.675.675 0 00-.22.528c0 .154.03.282.088.385.066.103.15.187.253.253.102.066.216.114.34.143.125.022.254.033.386.033.484 0 .854-.143 1.11-.429.265-.293.397-.66.397-1.1v-.275h-.253zm5.414-1.881h-1.386v2.717c0 .315.059.543.176.682.118.132.305.198.561.198.096 0 .198-.011.308-.033.11-.022.21-.055.297-.099l.033.847a2.186 2.186 0 01-.418.099c-.146.029-.3.044-.462.044-.491 0-.869-.136-1.133-.407-.256-.271-.385-.678-.385-1.221v-2.827h-1v-.847h1V97.29h1.023v1.496h1.386v.847zM56.837 104h-1.034v-5.214h1.034V104zm.176-7.095c0 .19-.07.348-.209.473a.679.679 0 01-.484.187.678.678 0 01-.484-.187.646.646 0 01-.198-.473c0-.19.066-.348.198-.473a.658.658 0 01.484-.198c.191 0 .352.066.484.198.14.125.21.282.21.473zm6.906 4.477c0 .403-.073.774-.22 1.111-.14.337-.337.631-.594.88-.25.242-.546.433-.891.572a3.08 3.08 0 01-1.111.198 3.08 3.08 0 01-1.111-.198 2.73 2.73 0 01-.891-.572 2.823 2.823 0 01-.594-.88 2.883 2.883 0 01-.209-1.111c0-.403.07-.77.209-1.1.147-.337.345-.627.594-.869.25-.242.546-.429.891-.561.345-.14.715-.209 1.111-.209s.766.07 1.111.209a2.594 2.594 0 011.485 1.43c.147.33.22.697.22 1.1zm-1.078 0c0-.249-.04-.488-.121-.715a1.684 1.684 0 00-.33-.594 1.567 1.567 0 00-.55-.418 1.675 1.675 0 00-.737-.154c-.279 0-.528.051-.748.154a1.596 1.596 0 00-.539.418c-.147.169-.26.367-.341.594-.073.227-.11.466-.11.715 0 .249.037.488.11.715.08.227.194.429.341.605a1.6 1.6 0 00.539.418c.22.103.47.154.748.154.279 0 .524-.051.737-.154a1.57 1.57 0 00.55-.418c.147-.176.257-.378.33-.605.08-.227.121-.466.121-.715zm3.447-2.596a9.265 9.265 0 01.044.858h.033a1.5 1.5 0 01.264-.385c.117-.125.25-.231.396-.319.147-.095.308-.169.484-.22.176-.051.36-.077.55-.077.337 0 .627.059.869.176a1.701 1.701 0 01.957 1.122c.08.257.12.532.12.825V104h-1.033v-2.893c0-.213-.018-.414-.055-.605a1.38 1.38 0 00-.176-.506.984.984 0 00-.363-.352c-.154-.088-.352-.132-.594-.132-.41 0-.748.158-1.012.473-.257.308-.385.722-.385 1.243V104h-1.034v-4.092a16.926 16.926 0 00-.044-1.122h.979z" fill="#757779"/><circle cx="126.251" cy="80.079" r="2.933" fill="#fff" stroke="#5AC69A" stroke-width="1.955"/><circle cx="208.251" cy="36.078" r="2.933" fill="#fff" stroke="#5AC69A" stroke-width="1.955"/><path fill-rule="evenodd" clip-rule="evenodd" d="M125.897 49L133 55.434l-.793.788-1.128-1.016v7.24l-.559.554h-3.35l-.559-.555v-3.882h-2.233v3.882l-.559.555h-3.351l-.558-.555v-7.23l-1.117 1.007-.793-.788L125.092 49h.805zm-4.87 5.206v7.685h2.234v-3.883l.558-.555h3.351l.558.555v3.883h2.234V54.2l-4.468-4.024-4.467 4.03z" fill="#283964"/><path d="M208.395 1c-6.596 0-11.962 5.394-11.962 12.022 0 9.927 11.165 19.459 11.641 19.86a.494.494 0 00.638.004c.475-.394 11.644-9.762 11.644-19.864C220.356 6.394 214.991 1 208.395 1zm.002 30.838c-1.835-1.645-10.967-10.259-10.967-18.816C197.43 6.944 202.349 2 208.395 2c6.045 0 10.965 4.944 10.965 11.022 0 8.702-9.123 17.193-10.963 18.816z" fill="#DF3C27" stroke="#DF3C27"/><path d="M211.713 22.167a.923.923 0 01-.515-.159l-3.098-2.083a.092.092 0 00-.104 0l-3.098 2.083a.92.92 0 01-1.379-.454.93.93 0 01-.025-.55l1.018-3.6a.103.103 0 00-.002-.055.095.095 0 00-.032-.045l-2.932-2.312a.923.923 0 01-.327-1.026.929.929 0 01.863-.641l3.738-.142a.097.097 0 00.051-.019.098.098 0 00.032-.043l1.287-3.513a.925.925 0 01.866-.607.922.922 0 01.866.607l1.288 3.513a.09.09 0 00.032.043.097.097 0 00.051.02l3.738.141a.923.923 0 01.863 1.206.923.923 0 01-.327.46l-2.933 2.313a.092.092 0 00-.033.1l1.018 3.6a.927.927 0 01-.167.806.923.923 0 01-.739.357zm-3.663-3.092a.916.916 0 01.511.175l3.098 2.083a.092.092 0 00.11.001.092.092 0 00.033-.047.095.095 0 00-.001-.058l-1.018-3.6a.924.924 0 01.32-.979l2.932-2.312a.09.09 0 00.034-.104.09.09 0 00-.088-.063l-3.738-.142a.922.922 0 01-.831-.608l-1.287-3.513a.09.09 0 00-.141-.046.085.085 0 00-.033.046l-1.276 3.509a.925.925 0 01-.83.608l-3.738.142a.091.091 0 00-.088.12.09.09 0 00.034.046l2.936 2.317a.927.927 0 01.32.98l-1.013 3.6a.088.088 0 00.033.1.082.082 0 00.108 0l3.098-2.084a.921.921 0 01.511-.154l.004-.017z" fill="#283964"/><defs><linearGradient id="paint0_linear" x1="-15.451" y1="24.333" x2="-15.451" y2="205.219" gradientUnits="userSpaceOnUse"><stop stop-color="#61D3A5"/><stop offset=".447" stop-color="#61D3A5"/><stop offset="1" stop-color="#fff" stop-opacity=".01"/></linearGradient></defs></svg>